  0
SECTION
  2
HEADER
  9
$ACADVER
  1
AC1024
  9
$ACADMAINTVER
 70
     6
  9
$DWGCODEPAGE
  3
ANSI_1252
  9
$INSBASE
 10
0.0
 20
0.0
 30
0.0
  9
$EXTMIN
 10
-30.0
 20
-30.0
 30
0.0
  9
$EXTMAX
 10
30.0
 20
30.0
 30
0.0
  9
$LIMMIN
 10
0.0
 20
0.0
  9
$LIMMAX
 10
420.0
 20
297.0
  9
$ORTHOMODE
 70
     0
  9
$REGENMODE
 70
     1
  9
$FILLMODE
 70
     1
  9
$QTEXTMODE
 70
     0
  9
$MIRRTEXT
 70
     0
  9
$LTSCALE
 40
1.0
  9
$ATTMODE
 70
     1
  9
$TEXTSIZE
 40
2.5
  9
$TRACEWID
 40
1.0
  9
$TEXTSTYLE
  7
Standard
  9
$CLAYER
  8
0
  9
$CELTYPE
  6
ByLayer
  9
$CECOLOR
 62
   256
  9
$CELTSCALE
 40
1.0
  9
$DISPSILH
 70
     0
  9
$DIMSCALE
 40
1.0
  9
$DIMASZ
 40
2.5
  9
$DIMEXO
 40
0.625
  9
$DIMDLI
 40
3.75
  9
$DIMRND
 40
0.0
  9
$DIMDLE
 40
0.0
  9
$DIMEXE
 40
1.25
  9
$DIMTP
 40
0.0
  9
$DIMTM
 40
0.0
  9
$DIMTXT
 40
2.5
  9
$DIMCEN
 40
2.5
  9
$DIMTSZ
 40
0.0
  9
$DIMTOL
 70
     0
  9
$DIMLIM
 70
     0
  9
$DIMTIH
 70
     0
  9
$DIMTOH
 70
     0
  9
$DIMSE1
 70
     0
  9
$DIMSE2
 70
     0
  9
$DIMTAD
 70
     1
  9
$DIMZIN
 70
     8
  9
$DIMBLK
  1

  9
$DIMASO
 70
     1
  9
$DIMSHO
 70
     1
  9
$DIMPOST
  1

  9
$DIMAPOST
  1

  9
$DIMALT
 70
     0
  9
$DIMALTD
 70
     3
  9
$DIMALTF
 40
0.03937007874016
  9
$DIMLFAC
 40
1.0
  9
$DIMTOFL
 70
     1
  9
$DIMTVP
 40
0.0
  9
$DIMTIX
 70
     0
  9
$DIMSOXD
 70
     0
  9
$DIMSAH
 70
     0
  9
$DIMBLK1
  1

  9
$DIMBLK2
  1

  9
$DIMSTYLE
  2
ISO-25
  9
$DIMCLRD
 70
     0
  9
$DIMCLRE
 70
     0
  9
$DIMCLRT
 70
     0
  9
$DIMTFAC
 40
1.0
  9
$DIMGAP
 40
0.625
  9
$DIMJUST
 70
     0
  9
$DIMSD1
 70
     0
  9
$DIMSD2
 70
     0
  9
$DIMTOLJ
 70
     0
  9
$DIMTZIN
 70
     8
  9
$DIMALTZ
 70
     0
  9
$DIMALTTZ
 70
     0
  9
$DIMUPT
 70
     0
  9
$DIMDEC
 70
     2
  9
$DIMTDEC
 70
     2
  9
$DIMALTU
 70
     2
  9
$DIMALTTD
 70
     3
  9
$DIMTXSTY
  7
Standard
  9
$DIMAUNIT
 70
     0
  9
$DIMADEC
 70
     0
  9
$DIMALTRND
 40
0.0
  9
$DIMAZIN
 70
     0
  9
$DIMDSEP
 70
    44
  9
$DIMATFIT
 70
     3
  9
$DIMFRAC
 70
     0
  9
$DIMLDRBLK
  1

  9
$DIMLUNIT
 70
     2
  9
$DIMLWD
 70
    -2
  9
$DIMLWE
 70
    -2
  9
$DIMTMOVE
 70
     0
  9
$DIMFXL
 40
1.0
  9
$DIMFXLON
 70
     0
  9
$DIMJOGANG
 40
0.7853981633974483
  9
$DIMTFILL
 70
     0
  9
$DIMTFILLCLR
 70
     0
  9
$DIMARCSYM
 70
     0
  9
$DIMLTYPE
  6

  9
$DIMLTEX1
  6

  9
$DIMLTEX2
  6

  9
$DIMTXTDIRECTION
 70
     0
  9
$LUNITS
 70
     2
  9
$LUPREC
 70
     3
  9
$SKETCHINC
 40
1.0
  9
$FILLETRAD
 40
0.0
  9
$AUNITS
 70
     0
  9
$AUPREC
 70
     0
  9
$MENU
  1
.
  9
$ELEVATION
 40
0.0
  9
$PELEVATION
 40
0.0
  9
$THICKNESS
 40
0.0
  9
$LIMCHECK
 70
     0
  9
$CHAMFERA
 40
10.0
  9
$CHAMFERB
 40
10.0
  9
$CHAMFERC
 40
20.0
  9
$CHAMFERD
 40
0.0
  9
$SKPOLY
 70
     0
  9
$TDCREATE
 40
2455022.970692847
  9
$TDUCREATE
 40
2455022.637359514
  9
$TDUPDATE
 40
2456855.823958333
  9
$TDUUPDATE
 40
2456855.490625
  9
$TDINDWG
 40
0.0
  9
$TDUSRTIMER
 40
0.0
  9
$USRTIMER
 70
     1
  9
$ANGBASE
 50
0.0
  9
$ANGDIR
 70
     0
  9
$PDMODE
 70
     0
  9
$PDSIZE
 40
0.0
  9
$PLINEWID
 40
0.0
  9
$SPLFRAME
 70
     0
  9
$SPLINETYPE
 70
     6
  9
$SPLINESEGS
 70
     8
  9
$HANDSEED
  5
C4
  9
$SURFTAB1
 70
     6
  9
$SURFTAB2
 70
     6
  9
$SURFTYPE
 70
     6
  9
$SURFU
 70
     6
  9
$SURFV
 70
     6
  9
$UCSBASE
  2

  9
$UCSNAME
  2

  9
$UCSORG
 10
0.0
 20
0.0
 30
0.0
  9
$UCSXDIR
 10
1.0
 20
0.0
 30
0.0
  9
$UCSYDIR
 10
0.0
 20
1.0
 30
0.0
  9
$UCSORTHOREF
  2

  9
$UCSORTHOVIEW
 70
     0
  9
$UCSORGTOP
 10
0.0
 20
0.0
 30
0.0
  9
$UCSORGBOTTOM
 10
0.0
 20
0.0
 30
0.0
  9
$UCSORGLEFT
 10
0.0
 20
0.0
 30
0.0
  9
$UCSORGRIGHT
 10
0.0
 20
0.0
 30
0.0
  9
$UCSORGFRONT
 10
0.0
 20
0.0
 30
0.0
  9
$UCSORGBACK
 10
0.0
 20
0.0
 30
0.0
  9
$PUCSBASE
  2

  9
$PUCSNAME
  2

  9
$PUCSORG
 10
0.0
 20
0.0
 30
0.0
  9
$PUCSXDIR
 10
1.0
 20
0.0
 30
0.0
  9
$PUCSYDIR
 10
0.0
 20
1.0
 30
0.0
  9
$PUCSORTHOREF
  2

  9
$PUCSORTHOVIEW
 70
     0
  9
$PUCSORGTOP
 10
0.0
 20
0.0
 30
0.0
  9
$PUCSORGBOTTOM
 10
0.0
 20
0.0
 30
0.0
  9
$PUCSORGLEFT
 10
0.0
 20
0.0
 30
0.0
  9
$PUCSORGRIGHT
 10
0.0
 20
0.0
 30
0.0
  9
$PUCSORGFRONT
 10
0.0
 20
0.0
 30
0.0
  9
$PUCSORGBACK
 10
0.0
 20
0.0
 30
0.0
  9
$USERI1
 70
     0
  9
$USERI2
 70
     0
  9
$USERI3
 70
     0
  9
$USERI4
 70
     0
  9
$USERI5
 70
     0
  9
$USERR1
 40
0.0
  9
$USERR2
 40
0.0
  9
$USERR3
 40
0.0
  9
$USERR4
 40
0.0
  9
$USERR5
 40
0.0
  9
$WORLDVIEW
 70
     1
  9
$SHADEDGE
 70
     3
  9
$SHADEDIF
 70
    70
  9
$TILEMODE
 70
     1
  9
$MAXACTVP
 70
    64
  9
$PINSBASE
 10
0.0
 20
0.0
 30
0.0
  9
$PLIMCHECK
 70
     0
  9
$PEXTMIN
 10
1.000000000000000E+20
 20
1.000000000000000E+20
 30
1.000000000000000E+20
  9
$PEXTMAX
 10
-1.000000000000000E+20
 20
-1.000000000000000E+20
 30
-1.000000000000000E+20
  9
$PLIMMIN
 10
0.0
 20
0.0
  9
$PLIMMAX
 10
0.0
 20
0.0
  9
$UNITMODE
 70
     0
  9
$VISRETAIN
 70
     1
  9
$PLINEGEN
 70
     0
  9
$PSLTSCALE
 70
     1
  9
$TREEDEPTH
 70
  3020
  9
$CMLSTYLE
  2
Standard
  9
$CMLJUST
 70
     0
  9
$CMLSCALE
 40
20.0
  9
$PROXYGRAPHICS
 70
     1
  9
$MEASUREMENT
 70
     1
  9
$CELWEIGHT
370
    -1
  9
$ENDCAPS
280
     0
  9
$JOINSTYLE
280
     0
  9
$LWDISPLAY
290
     0
  9
$INSUNITS
 70
     4
  9
$HYPERLINKBASE
  1

  9
$STYLESHEET
  1

  9
$XEDIT
290
     1
  9
$CEPSNTYPE
380
     0
  9
$PSTYLEMODE
290
     1
  9
$FINGERPRINTGUID
  2
{EC6BB858-51AA-46EC-B484-6C9CC7AB3E2E}
  9
$VERSIONGUID
  2
{FAEB1C32-E019-11D5-929B-00C0DF256EC4}
  9
$EXTNAMES
290
     1
  9
$PSVPSCALE
 40
0.0
  9
$OLESTARTUP
290
     0
  9
$SORTENTS
280
   127
  9
$INDEXCTL
280
     0
  9
$HIDETEXT
280
     1
  9
$XCLIPFRAME
280
     0
  9
$HALOGAP
280
     0
  9
$OBSCOLOR
 70
   257
  9
$OBSLTYPE
280
     0
  9
$INTERSECTIONDISPLAY
280
     0
  9
$INTERSECTIONCOLOR
 70
   257
  9
$DIMASSOC
280
     2
  9
$PROJECTNAME
  1

  9
$CAMERADISPLAY
290
     0
  9
$LENSLENGTH
 40
50.0
  9
$CAMERAHEIGHT
 40
0.0
  9
$STEPSPERSEC
 40
2.0
  9
$STEPSIZE
 40
6.0
  9
$3DDWFPREC
 40
2.0
  9
$PSOLWIDTH
 40
5.0
  9
$PSOLHEIGHT
 40
80.0
  9
$LOFTANG1
 40
1.570796326794897
  9
$LOFTANG2
 40
1.570796326794897
  9
$LOFTMAG1
 40
0.0
  9
$LOFTMAG2
 40
0.0
  9
$LOFTPARAM
 70
     7
  9
$LOFTNORMALS
280
     1
  9
$LATITUDE
 40
37.795
  9
$LONGITUDE
 40
-122.394
  9
$NORTHDIRECTION
 40
0.0
  9
$TIMEZONE
 70
 -8000
  9
$LIGHTGLYPHDISPLAY
280
     1
  9
$TILEMODELIGHTSYNCH
280
     1
  9
$SOLIDHIST
280
     1
  9
$SHOWHIST
280
     1
  9
$DWFFRAME
280
     2
  9
$DGNFRAME
280
     2
  9
$REALWORLDSCALE
290
     1
  9
$INTERFERECOLOR
 62
   256
  9
$CSHADOW
280
     0
  9
$SHADOWPLANELOCATION
 40
0.0
  0
ENDSEC
  0
SECTION
  2
CLASSES
  0
CLASS
  1
ACDBDICTIONARYWDFLT
  2
AcDbDictionaryWithDefault
  3
ObjectDBX Classes
 90
        0
 91
        8
280
     0
281
     0
  0
CLASS
  1
MATERIAL
  2
AcDbMaterial
  3
ObjectDBX Classes
 90
     1153
 91
        8
280
     0
281
     0
  0
CLASS
  1
VISUALSTYLE
  2
AcDbVisualStyle
  3
ObjectDBX Classes
 90
     4095
 91
        8
280
     0
281
     0
  0
CLASS
  1
SUN
  2
AcDbSun
  3
SCENEOE
 90
     1153
 91
        8
280
     0
281
     0
  0
CLASS
  1
SCALE
  2
AcDbScale
  3
ObjectDBX Classes
 90
     1153
 91
        8
280
     0
281
     0
  0
CLASS
  1
DICTIONARYVAR
  2
AcDbDictionaryVar
  3
ObjectDBX Classes
 90
        0
 91
        7
280
     0
281
     0
  0
ENDSEC
  0
SECTION
  2
TABLES
  0
TABLE
  2
VPORT
  5
20
330
0
100
AcDbSymbolTable
 70
     1
  0
VPORT
  5
24
330
20
100
AcDbSymbolTableRecord
100
AcDbViewportTableRecord
  2
*Active
 70
     0
 10
0.0
 20
0.0
 11
1.0
 21
1.0
 12
580.2776517729638
 22
300.0000000000003
 13
0.0
 23
0.0
 14
10.0
 24
10.0
 15
10.0
 25
10.0
 16
0.0
 26
0.0
 36
1.0
 17
-134.1869158878504
 27
0.0
 37
0.0
 40
696.0
 41
1.503761158224529
 42
50.0
 43
0.0
 44
0.0
 50
0.0
 51
0.0
 71
    16
 72
  1000
 73
     1
 74
     3
 75
     0
 76
     0
 77
     0
 78
     0
281
     0
 65
     1
110
0.0
120
0.0
130
0.0
111
1.0
121
0.0
131
0.0
112
0.0
122
1.0
132
0.0
 79
     0
146
0.0
348
25
 60
     3
 61
     5
292
     1
282
     1
141
0.0
142
0.0
 63
   256
361
26
  0
ENDTAB
  0
TABLE
  2
LTYPE
  5
9
330
0
100
AcDbSymbolTable
 70
     1
  0
LTYPE
  5
A
330
9
100
AcDbSymbolTableRecord
100
AcDbLinetypeTableRecord
  2
ByBlock
 70
     0
  3

 72
    65
 73
     0
 40
0.0
  0
LTYPE
  5
B
330
9
100
AcDbSymbolTableRecord
100
AcDbLinetypeTableRecord
  2
ByLayer
 70
     0
  3

 72
    65
 73
     0
 40
0.0
  0
LTYPE
  5
8
330
9
100
AcDbSymbolTableRecord
100
AcDbLinetypeTableRecord
  2
Continuous
 70
     0
  3
Solid line
 72
    65
 73
     0
 40
0.0
  0
ENDTAB
  0
TABLE
  2
LAYER
  5
2
330
0
100
AcDbSymbolTable
 70
     2
  0
LAYER
  5
1
330
2
100
AcDbSymbolTableRecord
100
AcDbLayerTableRecord
  2
0
 70
     0
 62
     7
  6
Continuous
370
    -3
390
3
347
6
  0
ENDTAB
  0
TABLE
  2
STYLE
  5
D
330
0
100
AcDbSymbolTable
 70
     1
  0
STYLE
  5
C
330
D
100
AcDbSymbolTableRecord
100
AcDbTextStyleTableRecord
  2
Standard
 70
     0
 40
0.0
 41
1.0
 50
0.0
 71
     0
 42
2.5
  3
arial.ttf
  4

1001
ACAD
1000
Arial
1071
        0
  0
ENDTAB
  0
TABLE
  2
VIEW
  5
1E
330
0
100
AcDbSymbolTable
 70
     0
  0
ENDTAB
  0
TABLE
  2
UCS
  5
1F
330
0
100
AcDbSymbolTable
 70
     0
  0
ENDTAB
  0
TABLE
  2
APPID
  5
F
330
0
100
AcDbSymbolTable
 70
     1
  0
APPID
  5
E
330
F
100
AcDbSymbolTableRecord
100
AcDbRegAppTableRecord
  2
ACAD
 70
     0
  0
ENDTAB
  0
TABLE
  2
DIMSTYLE
  5
11
330
0
100
AcDbSymbolTable
 70
     1
100
AcDbDimStyleTable
  0
DIMSTYLE
105
10
330
11
100
AcDbSymbolTableRecord
100
AcDbDimStyleTableRecord
  2
ISO-25
 70
     0
 41
2.5
 42
0.625
 43
3.75
 44
1.25
 73
     0
 74
     0
 77
     1
 78
     8
140
2.5
141
2.5
143
0.03937007874016
147
0.625
171
     3
172
     1
178
     0
271
     2
272
     2
274
     3
278
    44
283
     0
284
     8
340
C
  0
ENDTAB
  0
TABLE
  2
BLOCK_RECORD
  5
14
330
0
100
AcDbSymbolTable
 70
     1
  0
BLOCK_RECORD
  5
15
330
14
100
AcDbSymbolTableRecord
100
AcDbBlockTableRecord
  2
*Model_Space
340
18
 70
     0
280
     1
281
     0
  0
BLOCK_RECORD
  5
1A
330
14
100
AcDbSymbolTableRecord
100
AcDbBlockTableRecord
  2
*Paper_Space
340
1D
 70
     0
280
     1
281
     0
  0
BLOCK_RECORD
  5
B9
330
14
100
AcDbSymbolTableRecord
100
AcDbBlockTableRecord
  2
*Paper_Space0
340
BC
 70
     0
280
     1
281
     0
  0
ENDTAB
  0
ENDSEC
  0
SECTION
  2
BLOCKS
  0
BLOCK
  5
16
330
15
100
AcDbEntity
  8
0
100
AcDbBlockBegin
  2
*Model_Space
 70
     0
 10
0.0
 20
0.0
 30
0.0
  3
*Model_Space
  1
*Model_Space
  0
ENDBLK
  5
17
330
15
100
AcDbEntity
  8
0
100
AcDbBlockEnd
  0
BLOCK
  5
1B
330
1A
100
AcDbEntity
 67
     1
  8
0
100
AcDbBlockBegin
  2
*Paper_Space
 70
     0
 10
0.0
 20
0.0
 30
0.0
  3
*Paper_Space
  1
*Paper_Space
  0
ENDBLK
  5
1C
330
1A
100
AcDbEntity
 67
     1
  8
0
100
AcDbBlockEnd
  0
BLOCK
  5
BA
330
B9
100
AcDbEntity
  8
0
100
AcDbBlockBegin
  2
*Paper_Space0
 70
     0
 10
0.0
 20
0.0
 30
0.0
  3
*Paper_Space0
  1
*Paper_Space0
  0
ENDBLK
  5
BB
330
B9
100
AcDbEntity
  8
0
100
AcDbBlockEnd
  0
ENDSEC
  0
SECTION
  2
ENTITIES
  0
CIRCLE
  5
4D
330
15
100
AcDbEntity
  8
0
100
AcDbCircle
 10
182.6879796633752
 20
290.0000000000003
 30
0.0
 40
30.0
  0
CIRCLE
  5
4E
330
15
100
AcDbEntity
  8
0
100
AcDbCircle
 10
182.6879796633752
 20
247.5000000000003
 30
0.0
 40
4.0
  0
CIRCLE
  5
4F
330
15
100
AcDbEntity
  8
0
100
AcDbCircle
 10
182.6879796633752
 20
332.5000000000003
 30
0.0
 40
4.0
  0
ARC
  5
50
330
15
100
AcDbEntity
  8
0
100
AcDbCircle
 10
110.0
 20
476.323529411765
 30
0.0
 40
100.0
100
AcDbArc
 50
111.3116028762545
 51
223.3745497918939
  0
ARC
  5
51
330
15
100
AcDbEntity
  8
0
100
AcDbCircle
 10
255.3759593267505
 20
476.323529411765
 30
0.0
 40
100.0
100
AcDbArc
 50
316.6254502081059
 51
68.68839712374546
  0
ARC
  5
52
330
15
100
AcDbEntity
  8
0
100
AcDbCircle
 10
27.69917303302616
 20
288.137254901961
 30
0.0
 40
100.0
100
AcDbArc
 50
0.6885806555998306
 51
58.89357431426928
  0
ARC
  5
53
330
15
100
AcDbEntity
  8
0
100
AcDbCircle
 10
337.6767862937243
 20
288.1372549019611
 30
0.0
 40
100.0
100
AcDbArc
 50
121.1064256857307
 51
179.3114193444002
  0
ARC
  5
54
330
15
100
AcDbEntity
  8
0
100
AcDbCircle
 10
182.6879796633752
 20
545.0000000000002
 30
0.0
 40
200.0
100
AcDbArc
 50
301.1064256857307
 51
316.625450208106
  0
ARC
  5
55
330
15
100
AcDbEntity
  8
0
100
AcDbCircle
 10
182.6879796633752
 20
290.0000000000003
 30
0.0
 40
55.0
100
AcDbArc
 50
180.6885806555998
 51
359.3114193444002
  0
ARC
  5
56
330
15
100
AcDbEntity
  8
0
100
AcDbCircle
 10
182.6879796633752
 20
290.0000000000003
 30
0.0
 40
300.0
100
AcDbArc
 50
68.68839712374546
 51
111.3116028762545
  0
ARC
  5
57
330
15
100
AcDbEntity
  8
0
100
AcDbCircle
 10
182.6879796633752
 20
545.0000000000002
 30
0.0
 40
200.0
100
AcDbArc
 50
223.3745497918938
 51
238.8935743142693
  0
CIRCLE
  5
58
330
15
100
AcDbEntity
  8
0
100
AcDbCircle
 10
324.8064203879758
 20
310.0000000000003
 30
0.0
 40
30.0
  0
CIRCLE
  5
59
330
15
100
AcDbEntity
  8
0
100
AcDbCircle
 10
324.8064203879758
 20
352.5000000000003
 30
0.0
 40
4.0
  0
CIRCLE
  5
5A
330
15
100
AcDbEntity
  8
0
100
AcDbCircle
 10
322.8760131557518
 20
267.5000000000003
 30
0.0
 40
4.0
  0
ARC
  5
5B
330
15
100
AcDbEntity
  8
0
100
AcDbCircle
 10
397.4944000513509
 20
123.6764705882356
 30
0.0
 40
100.0
100
AcDbArc
 50
291.3116028762545
 51
43.3745497918939
  0
ARC
  5
5C
330
15
100
AcDbEntity
  8
0
100
AcDbCircle
 10
252.1184407246004
 20
123.6764705882356
 30
0.0
 40
100.0
100
AcDbArc
 50
136.6254502081059
 51
248.6883971237455
  0
ARC
  5
5D
330
15
100
AcDbEntity
  8
0
100
AcDbCircle
 10
479.7952270183248
 20
311.8627450980396
 30
0.0
 40
100.0
100
AcDbArc
 50
180.6885806555998
 51
238.8935743142693
  0
ARC
  5
5E
330
15
100
AcDbEntity
  8
0
100
AcDbCircle
 10
169.8176137576268
 20
311.8627450980395
 30
0.0
 40
100.0
100
AcDbArc
 50
301.1064256857307
 51
359.3114193444002
  0
ARC
  5
5F
330
15
100
AcDbEntity
  8
0
100
AcDbCircle
 10
324.8064203879758
 20
310.0000000000003
 30
0.0
 40
55.0
100
AcDbArc
 50
0.688580655599771
 51
179.3114193444002
  0
ARC
  5
60
330
15
100
AcDbEntity
  8
0
100
AcDbCircle
 10
324.8064203879758
 20
310.0000000000003
 30
0.0
 40
300.0
100
AcDbArc
 50
248.6883971237455
 51
291.3116028762545
  0
ARC
  5
61
330
15
100
AcDbEntity
  8
0
100
AcDbCircle
 10
324.8064203879757
 20
55.0000000000004
 30
0.0
 40
200.0
100
AcDbArc
 50
43.37454979189381
 51
58.89357431426928
  0
ARC
  5
62
330
15
100
AcDbEntity
  8
0
100
AcDbCircle
 10
324.8064203879757
 20
55.0000000000004
 30
0.0
 40
200.0
100
AcDbArc
 50
121.1064256857307
 51
136.625450208106
  0
CIRCLE
  5
63
330
15
100
AcDbEntity
  8
0
100
AcDbCircle
 10
709.4934921068516
 20
310.0000000000003
 30
0.0
 40
30.0
  0
CIRCLE
  5
64
330
15
100
AcDbEntity
  8
0
100
AcDbCircle
 10
709.4934921068516
 20
352.5000000000003
 30
0.0
 40
4.0
  0
CIRCLE
  5
65
330
15
100
AcDbEntity
  8
0
100
AcDbCircle
 10
709.4934921068516
 20
267.5000000000003
 30
0.0
 40
4.0
  0
ARC
  5
66
330
15
100
AcDbEntity
  8
0
100
AcDbCircle
 10
782.1814717702267
 20
123.6764705882356
 30
0.0
 40
100.0
100
AcDbArc
 50
291.3116028762545
 51
43.3745497918939
  0
ARC
  5
67
330
15
100
AcDbEntity
  8
0
100
AcDbCircle
 10
636.8055124434762
 20
123.6764705882356
 30
0.0
 40
100.0
100
AcDbArc
 50
136.6254502081059
 51
248.6883971237455
  0
ARC
  5
68
330
15
100
AcDbEntity
  8
0
100
AcDbCircle
 10
864.4822987372006
 20
311.8627450980396
 30
0.0
 40
100.0
100
AcDbArc
 50
180.6885806555998
 51
238.8935743142693
  0
ARC
  5
69
330
15
100
AcDbEntity
  8
0
100
AcDbCircle
 10
554.5046854765026
 20
311.8627450980395
 30
0.0
 40
100.0
100
AcDbArc
 50
301.1064256857307
 51
359.3114193444002
  0
ARC
  5
6A
330
15
100
AcDbEntity
  8
0
100
AcDbCircle
 10
709.4934921068516
 20
310.0000000000003
 30
0.0
 40
55.0
100
AcDbArc
 50
0.688580655599771
 51
179.3114193444002
  0
ARC
  5
6B
330
15
100
AcDbEntity
  8
0
100
AcDbCircle
 10
709.4934921068516
 20
310.0000000000003
 30
0.0
 40
300.0
100
AcDbArc
 50
248.6883971237455
 51
291.3116028762545
  0
ARC
  5
6C
330
15
100
AcDbEntity
  8
0
100
AcDbCircle
 10
709.4934921068515
 20
55.0000000000004
 30
0.0
 40
200.0
100
AcDbArc
 50
43.37454979189381
 51
58.89357431426928
  0
ARC
  5
6D
330
15
100
AcDbEntity
  8
0
100
AcDbCircle
 10
709.4934921068515
 20
55.0000000000004
 30
0.0
 40
200.0
100
AcDbArc
 50
121.1064256857307
 51
136.625450208106
  0
ARC
  5
6E
330
15
100
AcDbEntity
  8
0
100
AcDbCircle
 10
63.68797966337526
 20
429.263229697732
 30
0.0
 40
3.999999999999993
100
AcDbArc
 50
180.0
 51
0.0
  0
ARC
  5
6F
330
15
100
AcDbEntity
  8
0
100
AcDbCircle
 10
131.6879796633752
 20
372.6495504310487
 30
0.0
 40
3.999999999999993
100
AcDbArc
 50
180.0
 51
0.0
  0
ARC
  5
70
330
15
100
AcDbEntity
  8
0
100
AcDbCircle
 10
165.6879796633752
 20
351.7008914036097
 30
0.0
 40
3.999999999999993
100
AcDbArc
 50
180.0
 51
0.0
  0
ARC
  5
71
330
15
100
AcDbEntity
  8
0
100
AcDbCircle
 10
63.68797966337524
 20
523.3468935230242
 30
0.0
 40
3.999999999999993
100
AcDbArc
 50
0.0
 51
180.0
  0
ARC
  5
72
330
15
100
AcDbEntity
  8
0
100
AcDbCircle
 10
131.6879796633752
 20
551.065125974344
 30
0.0
 40
3.999999999999993
100
AcDbArc
 50
0.0
 51
180.0
  0
ARC
  5
73
330
15
100
AcDbEntity
  8
0
100
AcDbCircle
 10
165.6879796633752
 20
555.4562110782118
 30
0.0
 40
3.999999999999993
100
AcDbArc
 50
0.0
 51
180.0
  0
ARC
  5
74
330
15
100
AcDbEntity
  8
0
100
AcDbCircle
 10
97.68797966337523
 20
542.0535657355399
 30
0.0
 40
3.999999999999993
100
AcDbArc
 50
0.0
 51
180.0
  0
ARC
  5
75
330
15
100
AcDbEntity
  8
0
100
AcDbCircle
 10
97.68797966337524
 20
402.4069663151768
 30
0.0
 40
3.999999999999993
100
AcDbArc
 50
180.0
 51
0.0
  0
LINE
  5
76
330
15
100
AcDbEntity
  8
0
100
AcDbLine
 10
59.68797966337525
 20
523.3468935230242
 30
0.0
 11
59.68797966337527
 21
429.263229697732
 31
0.0
  0
LINE
  5
77
330
15
100
AcDbEntity
  8
0
100
AcDbLine
 10
67.68797966337524
 20
429.263229697732
 30
0.0
 11
67.68797966337524
 21
523.3468935230242
 31
0.0
  0
LINE
  5
78
330
15
100
AcDbEntity
  8
0
100
AcDbLine
 10
93.68797966337524
 20
542.0535657355399
 30
0.0
 11
93.68797966337524
 21
402.4069663151768
 31
0.0
  0
LINE
  5
79
330
15
100
AcDbEntity
  8
0
100
AcDbLine
 10
101.6879796633752
 20
402.4069663151768
 30
0.0
 11
101.6879796633752
 21
542.0535657355399
 31
0.0
  0
LINE
  5
7A
330
15
100
AcDbEntity
  8
0
100
AcDbLine
 10
127.6879796633752
 20
551.065125974344
 30
0.0
 11
127.6879796633752
 21
372.6495504310487
 31
0.0
  0
LINE
  5
7B
330
15
100
AcDbEntity
  8
0
100
AcDbLine
 10
135.6879796633752
 20
372.6495504310487
 30
0.0
 11
135.6879796633752
 21
551.065125974344
 31
0.0
  0
LINE
  5
7C
330
15
100
AcDbEntity
  8
0
100
AcDbLine
 10
161.6879796633752
 20
555.4562110782118
 30
0.0
 11
161.6879796633752
 21
351.7008914036097
 31
0.0
  0
LINE
  5
7D
330
15
100
AcDbEntity
  8
0
100
AcDbLine
 10
169.6879796633752
 20
351.7008914036097
 30
0.0
 11
169.6879796633752
 21
555.4562110782118
 31
0.0
  0
ARC
  5
7E
330
15
100
AcDbEntity
  8
0
100
AcDbCircle
 10
301.6879796633752
 20
429.263229697732
 30
0.0
 40
3.999999999999993
100
AcDbArc
 50
180.0
 51
0.0
  0
ARC
  5
7F
330
15
100
AcDbEntity
  8
0
100
AcDbCircle
 10
233.6879796633752
 20
372.6495504310487
 30
0.0
 40
3.999999999999993
100
AcDbArc
 50
180.0
 51
0.0
  0
ARC
  5
80
330
15
100
AcDbEntity
  8
0
100
AcDbCircle
 10
199.6879796633752
 20
351.7008914036097
 30
0.0
 40
3.999999999999993
100
AcDbArc
 50
180.0
 51
0.0
  0
ARC
  5
81
330
15
100
AcDbEntity
  8
0
100
AcDbCircle
 10
301.6879796633752
 20
523.3468935230242
 30
0.0
 40
3.999999999999993
100
AcDbArc
 50
0.0
 51
180.0
  0
ARC
  5
82
330
15
100
AcDbEntity
  8
0
100
AcDbCircle
 10
233.6879796633752
 20
551.065125974344
 30
0.0
 40
3.999999999999993
100
AcDbArc
 50
0.0
 51
180.0
  0
ARC
  5
83
330
15
100
AcDbEntity
  8
0
100
AcDbCircle
 10
199.6879796633752
 20
555.4562110782118
 30
0.0
 40
3.999999999999993
100
AcDbArc
 50
0.0
 51
180.0
  0
ARC
  5
84
330
15
100
AcDbEntity
  8
0
100
AcDbCircle
 10
267.6879796633752
 20
542.0535657355399
 30
0.0
 40
3.999999999999993
100
AcDbArc
 50
0.0
 51
180.0
  0
ARC
  5
85
330
15
100
AcDbEntity
  8
0
100
AcDbCircle
 10
267.6879796633752
 20
402.4069663151768
 30
0.0
 40
3.999999999999993
100
AcDbArc
 50
180.0
 51
0.0
  0
LINE
  5
86
330
15
100
AcDbEntity
  8
0
100
AcDbLine
 10
305.6879796633752
 20
523.3468935230242
 30
0.0
 11
305.6879796633752
 21
429.263229697732
 31
0.0
  0
LINE
  5
87
330
15
100
AcDbEntity
  8
0
100
AcDbLine
 10
297.6879796633752
 20
429.263229697732
 30
0.0
 11
297.6879796633752
 21
523.3468935230242
 31
0.0
  0
LINE
  5
88
330
15
100
AcDbEntity
  8
0
100
AcDbLine
 10
271.6879796633752
 20
542.0535657355399
 30
0.0
 11
271.6879796633752
 21
402.4069663151768
 31
0.0
  0
LINE
  5
89
330
15
100
AcDbEntity
  8
0
100
AcDbLine
 10
263.6879796633752
 20
402.4069663151768
 30
0.0
 11
263.6879796633752
 21
542.0535657355399
 31
0.0
  0
LINE
  5
8A
330
15
100
AcDbEntity
  8
0
100
AcDbLine
 10
237.6879796633752
 20
551.065125974344
 30
0.0
 11
237.6879796633752
 21
372.6495504310487
 31
0.0
  0
LINE
  5
8B
330
15
100
AcDbEntity
  8
0
100
AcDbLine
 10
229.6879796633752
 20
372.6495504310487
 30
0.0
 11
229.6879796633752
 21
551.065125974344
 31
0.0
  0
LINE
  5
8C
330
15
100
AcDbEntity
  8
0
100
AcDbLine
 10
203.6879796633752
 20
555.4562110782118
 30
0.0
 11
203.6879796633752
 21
351.7008914036097
 31
0.0
  0
LINE
  5
8D
330
15
100
AcDbEntity
  8
0
100
AcDbLine
 10
195.6879796633752
 20
351.7008914036097
 30
0.0
 11
195.6879796633752
 21
555.4562110782118
 31
0.0
  0
CIRCLE
  5
8E
330
15
100
AcDbEntity
  8
0
100
AcDbCircle
 10
547.9167126257582
 20
290.0000000000003
 30
0.0
 40
30.0
  0
CIRCLE
  5
8F
330
15
100
AcDbEntity
  8
0
100
AcDbCircle
 10
547.9167126257582
 20
247.5000000000003
 30
0.0
 40
4.0
  0
CIRCLE
  5
90
330
15
100
AcDbEntity
  8
0
100
AcDbCircle
 10
547.9167126257582
 20
332.5000000000003
 30
0.0
 40
4.0
  0
ARC
  5
91
330
15
100
AcDbEntity
  8
0
100
AcDbCircle
 10
475.228732962383
 20
476.323529411765
 30
0.0
 40
100.0
100
AcDbArc
 50
111.3116028762545
 51
223.3745497918939
  0
ARC
  5
92
330
15
100
AcDbEntity
  8
0
100
AcDbCircle
 10
620.6046922891335
 20
476.323529411765
 30
0.0
 40
100.0
100
AcDbArc
 50
316.6254502081059
 51
68.68839712374546
  0
ARC
  5
93
330
15
100
AcDbEntity
  8
0
100
AcDbCircle
 10
392.9279059954092
 20
288.137254901961
 30
0.0
 40
100.0
100
AcDbArc
 50
0.6885806555998306
 51
58.89357431426931
  0
ARC
  5
94
330
15
100
AcDbEntity
  8
0
100
AcDbCircle
 10
702.9055192561073
 20
288.1372549019611
 30
0.0
 40
100.0
100
AcDbArc
 50
121.1064256857307
 51
179.3114193444002
  0
ARC
  5
95
330
15
100
AcDbEntity
  8
0
100
AcDbCircle
 10
547.9167126257582
 20
545.0000000000002
 30
0.0
 40
200.0
100
AcDbArc
 50
301.1064256857307
 51
316.625450208106
  0
ARC
  5
96
330
15
100
AcDbEntity
  8
0
100
AcDbCircle
 10
547.9167126257582
 20
290.0000000000003
 30
0.0
 40
55.0
100
AcDbArc
 50
180.6885806555998
 51
359.3114193444002
  0
ARC
  5
97
330
15
100
AcDbEntity
  8
0
100
AcDbCircle
 10
547.9167126257582
 20
290.0000000000003
 30
0.0
 40
300.0
100
AcDbArc
 50
68.68839712374546
 51
111.3116028762545
  0
ARC
  5
98
330
15
100
AcDbEntity
  8
0
100
AcDbCircle
 10
547.9167126257582
 20
545.0000000000002
 30
0.0
 40
200.0
100
AcDbArc
 50
223.3745497918938
 51
238.8935743142693
  0
ARC
  5
99
330
15
100
AcDbEntity
  8
0
100
AcDbCircle
 10
428.9167126257582
 20
429.263229697732
 30
0.0
 40
3.999999999999993
100
AcDbArc
 50
180.0
 51
0.0
  0
ARC
  5
9A
330
15
100
AcDbEntity
  8
0
100
AcDbCircle
 10
496.9167126257582
 20
372.6495504310487
 30
0.0
 40
3.999999999999993
100
AcDbArc
 50
180.0
 51
0.0
  0
ARC
  5
9B
330
15
100
AcDbEntity
  8
0
100
AcDbCircle
 10
530.9167126257582
 20
351.7008914036097
 30
0.0
 40
3.999999999999993
100
AcDbArc
 50
180.0
 51
0.0
  0
ARC
  5
9C
330
15
100
AcDbEntity
  8
0
100
AcDbCircle
 10
428.9167126257582
 20
523.3468935230242
 30
0.0
 40
3.999999999999993
100
AcDbArc
 50
0.0
 51
180.0
  0
ARC
  5
9D
330
15
100
AcDbEntity
  8
0
100
AcDbCircle
 10
496.9167126257582
 20
551.065125974344
 30
0.0
 40
3.999999999999993
100
AcDbArc
 50
0.0
 51
180.0
  0
ARC
  5
9E
330
15
100
AcDbEntity
  8
0
100
AcDbCircle
 10
530.9167126257582
 20
555.4562110782118
 30
0.0
 40
3.999999999999993
100
AcDbArc
 50
0.0
 51
180.0
  0
ARC
  5
9F
330
15
100
AcDbEntity
  8
0
100
AcDbCircle
 10
462.9167126257582
 20
542.0535657355399
 30
0.0
 40
3.999999999999993
100
AcDbArc
 50
0.0
 51
180.0
  0
ARC
  5
A0
330
15
100
AcDbEntity
  8
0
100
AcDbCircle
 10
462.9167126257582
 20
402.4069663151768
 30
0.0
 40
3.999999999999993
100
AcDbArc
 50
180.0
 51
0.0
  0
LINE
  5
A1
330
15
100
AcDbEntity
  8
0
100
AcDbLine
 10
424.9167126257582
 20
523.3468935230242
 30
0.0
 11
424.9167126257582
 21
429.263229697732
 31
0.0
  0
LINE
  5
A2
330
15
100
AcDbEntity
  8
0
100
AcDbLine
 10
432.9167126257582
 20
429.263229697732
 30
0.0
 11
432.9167126257582
 21
523.3468935230242
 31
0.0
  0
LINE
  5
A3
330
15
100
AcDbEntity
  8
0
100
AcDbLine
 10
458.9167126257582
 20
542.0535657355399
 30
0.0
 11
458.9167126257582
 21
402.4069663151768
 31
0.0
  0
LINE
  5
A4
330
15
100
AcDbEntity
  8
0
100
AcDbLine
 10
466.9167126257582
 20
402.4069663151768
 30
0.0
 11
466.9167126257582
 21
542.0535657355399
 31
0.0
  0
LINE
  5
A5
330
15
100
AcDbEntity
  8
0
100
AcDbLine
 10
492.9167126257582
 20
551.065125974344
 30
0.0
 11
492.9167126257582
 21
372.6495504310487
 31
0.0
  0
LINE
  5
A6
330
15
100
AcDbEntity
  8
0
100
AcDbLine
 10
500.9167126257582
 20
372.6495504310487
 30
0.0
 11
500.9167126257582
 21
551.065125974344
 31
0.0
  0
LINE
  5
A7
330
15
100
AcDbEntity
  8
0
100
AcDbLine
 10
526.9167126257582
 20
555.4562110782118
 30
0.0
 11
526.9167126257582
 21
351.7008914036097
 31
0.0
  0
LINE
  5
A8
330
15
100
AcDbEntity
  8
0
100
AcDbLine
 10
534.9167126257582
 20
351.7008914036097
 30
0.0
 11
534.9167126257582
 21
555.4562110782118
 31
0.0
  0
ARC
  5
A9
330
15
100
AcDbEntity
  8
0
100
AcDbCircle
 10
666.9167126257582
 20
429.263229697732
 30
0.0
 40
3.999999999999993
100
AcDbArc
 50
180.0
 51
0.0
  0
ARC
  5
AA
330
15
100
AcDbEntity
  8
0
100
AcDbCircle
 10
598.9167126257582
 20
372.6495504310487
 30
0.0
 40
3.999999999999993
100
AcDbArc
 50
180.0
 51
0.0
  0
ARC
  5
AB
330
15
100
AcDbEntity
  8
0
100
AcDbCircle
 10
564.9167126257582
 20
351.7008914036097
 30
0.0
 40
3.999999999999993
100
AcDbArc
 50
180.0
 51
0.0
  0
ARC
  5
AC
330
15
100
AcDbEntity
  8
0
100
AcDbCircle
 10
666.9167126257582
 20
523.3468935230242
 30
0.0
 40
3.999999999999993
100
AcDbArc
 50
0.0
 51
180.0
  0
ARC
  5
AD
330
15
100
AcDbEntity
  8
0
100
AcDbCircle
 10
598.9167126257582
 20
551.065125974344
 30
0.0
 40
3.999999999999993
100
AcDbArc
 50
0.0
 51
180.0
  0
ARC
  5
AE
330
15
100
AcDbEntity
  8
0
100
AcDbCircle
 10
564.9167126257582
 20
555.4562110782118
 30
0.0
 40
3.999999999999993
100
AcDbArc
 50
0.0
 51
180.0
  0
ARC
  5
AF
330
15
100
AcDbEntity
  8
0
100
AcDbCircle
 10
632.9167126257582
 20
542.0535657355399
 30
0.0
 40
3.999999999999993
100
AcDbArc
 50
0.0
 51
180.0
  0
ARC
  5
B0
330
15
100
AcDbEntity
  8
0
100
AcDbCircle
 10
632.9167126257582
 20
402.4069663151768
 30
0.0
 40
3.999999999999993
100
AcDbArc
 50
180.0
 51
0.0
  0
LINE
  5
B1
330
15
100
AcDbEntity
  8
0
100
AcDbLine
 10
670.9167126257582
 20
523.3468935230242
 30
0.0
 11
670.9167126257582
 21
429.263229697732
 31
0.0
  0
LINE
  5
B2
330
15
100
AcDbEntity
  8
0
100
AcDbLine
 10
662.9167126257582
 20
429.263229697732
 30
0.0
 11
662.9167126257582
 21
523.3468935230242
 31
0.0
  0
LINE
  5
B3
330
15
100
AcDbEntity
  8
0
100
AcDbLine
 10
636.9167126257582
 20
542.0535657355399
 30
0.0
 11
636.9167126257582
 21
402.4069663151768
 31
0.0
  0
LINE
  5
B4
330
15
100
AcDbEntity
  8
0
100
AcDbLine
 10
628.9167126257582
 20
402.4069663151768
 30
0.0
 11
628.9167126257582
 21
542.0535657355399
 31
0.0
  0
LINE
  5
B5
330
15
100
AcDbEntity
  8
0
100
AcDbLine
 10
602.9167126257582
 20
551.065125974344
 30
0.0
 11
602.9167126257582
 21
372.6495504310487
 31
0.0
  0
LINE
  5
B6
330
15
100
AcDbEntity
  8
0
100
AcDbLine
 10
594.9167126257582
 20
372.6495504310487
 30
0.0
 11
594.9167126257582
 21
551.065125974344
 31
0.0
  0
LINE
  5
B7
330
15
100
AcDbEntity
  8
0
100
AcDbLine
 10
568.9167126257582
 20
555.4562110782118
 30
0.0
 11
568.9167126257582
 21
351.7008914036097
 31
0.0
  0
LINE
  5
B8
330
15
100
AcDbEntity
  8
0
100
AcDbLine
 10
560.9167126257582
 20
351.7008914036097
 30
0.0
 11
560.9167126257582
 21
555.4562110782118
 31
0.0
  0
ENDSEC
  0
SECTION
  2
OBJECTS
  0
DICTIONARY
  5
5
330
0
100
AcDbDictionary
281
     1
  3
ACAD_DETAILVIEWSTYLE
350
C2
  3
ACAD_GROUP
350
21
  3
ACAD_LAYOUT
350
19
  3
ACAD_MATERIAL
350
7
  3
ACAD_MLEADERSTYLE
350
C0
  3
ACAD_MLINESTYLE
350
13
  3
ACAD_PLOTSETTINGS
350
22
  3
ACAD_PLOTSTYLENAME
350
4
  3
ACAD_SCALELIST
350
28
  3
ACAD_SECTIONVIEWSTYLE
350
C3
  3
ACAD_TABLESTYLE
350
BF
  3
ACAD_VISUALSTYLE
350
23
  3
AcDbVariableDictionary
350
BD
  0
SUN
  5
26
330
24
100
AcDbSun
 90
        1
290
     0
 63
     7
421
 16777215
 40
1.0
291
     1
 91
  2455826
 92
 54000000
292
     0
 70
     2
 71
   256
280
     1
  0
DICTIONARY
  5
C2
102
{ACAD_REACTORS
330
5
102
}
330
5
100
AcDbDictionary
281
     1
  0
DICTIONARY
  5
21
102
{ACAD_REACTORS
330
5
102
}
330
5
100
AcDbDictionary
281
     1
  0
DICTIONARY
  5
19
102
{ACAD_REACTORS
330
5
102
}
330
5
100
AcDbDictionary
281
     1
  3
Model
350
18
  3
Sheet1
350
1D
  3
Sheet2
350
BC
  0
DICTIONARY
  5
7
102
{ACAD_REACTORS
330
5
102
}
330
5
100
AcDbDictionary
281
     1
  3
ByBlock
350
4C
  3
ByLayer
350
4B
  3
Global
350
6
  0
DICTIONARY
  5
C0
102
{ACAD_REACTORS
330
5
102
}
330
5
100
AcDbDictionary
281
     1
  0
DICTIONARY
  5
13
102
{ACAD_REACTORS
330
5
102
}
330
5
100
AcDbDictionary
281
     1
  3
Standard
350
12
  0
DICTIONARY
  5
22
102
{ACAD_REACTORS
330
5
102
}
330
5
100
AcDbDictionary
281
     1
  0
ACDBDICTIONARYWDFLT
  5
4
102
{ACAD_REACTORS
330
5
102
}
330
5
100
AcDbDictionary
281
     1
  3
Normal
350
3
100
AcDbDictionaryWithDefault
340
3
  0
DICTIONARY
  5
28
102
{ACAD_REACTORS
330
5
102
}
330
5
100
AcDbDictionary
281
     1
  3
*A1
350
4A
  0
DICTIONARY
  5
C3
102
{ACAD_REACTORS
330
5
102
}
330
5
100
AcDbDictionary
281
     1
  0
DICTIONARY
  5
BF
102
{ACAD_REACTORS
330
5
102
}
330
5
100
AcDbDictionary
281
     1
  0
DICTIONARY
  5
23
102
{ACAD_REACTORS
330
5
102
}
330
5
100
AcDbDictionary
281
     1
  3
2dWireframe
350
25
  0
DICTIONARY
  5
BD
102
{ACAD_REACTORS
330
5
102
}
330
5
100
AcDbDictionary
281
     1
  3
CANNOSCALE
350
BE
  3
XCLIPFRAME
350
C1
  0
LAYOUT
  5
18
102
{ACAD_REACTORS
330
19
330
19
102
}
330
19
100
AcDbPlotSettings
  1

  2
none_device
  4
ISO_A3_(420.00_x_297.00_MM)
  6

 40
7.5
 41
20.0
 42
7.5
 43
20.0
 44
420.0
 45
297.0
 46
20.78282828282826
 47
0.0
 48
0.0
 49
0.0
140
0.0
141
0.0
142
1.0
143
1.155642023346303
 70
  1204
 72
     1
 73
     0
 74
     1
  7
monochrome.ctb
 75
     0
 76
     0
 77
     2
 78
   300
147
0.8653198653198654
148
-134.1869158878504
149
0.0
100
AcDbLayout
  1
Model
 70
     1
 71
     0
 10
0.0
 20
0.0
 11
420.0
 21
297.0
 12
0.0
 22
0.0
 32
0.0
 14
-30.0
 24
-30.0
 34
0.0
 15
30.0
 25
30.0
 35
0.0
146
0.0
 13
0.0
 23
0.0
 33
0.0
 16
1.0
 26
0.0
 36
0.0
 17
0.0
 27
1.0
 37
0.0
 76
     0
330
15
331
24
  0
LAYOUT
  5
1D
102
{ACAD_REACTORS
330
19
330
19
102
}
330
19
100
AcDbPlotSettings
  1

  2
none_device
  4

  6

 40
0.0
 41
0.0
 42
0.0
 43
0.0
 44
0.0
 45
0.0
 46
0.0
 47
0.0
 48
0.0
 49
0.0
140
0.0
141
0.0
142
1.0
143
1.0
 70
   688
 72
     0
 73
     0
 74
     5
  7

 75
    16
 76
     0
 77
     2
 78
   300
147
1.0
148
0.0
149
0.0
100
AcDbLayout
  1
Sheet1
 70
     1
 71
     1
 10
0.0
 20
0.0
 11
420.0
 21
297.0
 12
0.0
 22
0.0
 32
0.0
 14
1.000000000000000E+20
 24
1.000000000000000E+20
 34
1.000000000000000E+20
 15
-1.000000000000000E+20
 25
-1.000000000000000E+20
 35
-1.000000000000000E+20
146
0.0
 13
0.0
 23
0.0
 33
0.0
 16
1.0
 26
0.0
 36
0.0
 17
0.0
 27
1.0
 37
0.0
 76
     0
330
1A
  0
LAYOUT
  5
BC
102
{ACAD_REACTORS
330
19
330
19
102
}
330
19
100
AcDbPlotSettings
  1

  2
none_device
  4

  6

 40
0.0
 41
0.0
 42
0.0
 43
0.0
 44
0.0
 45
0.0
 46
0.0
 47
0.0
 48
0.0
 49
0.0
140
0.0
141
0.0
142
1.0
143
1.0
 70
   688
 72
     0
 73
     0
 74
     5
  7

 75
    16
 76
     0
 77
     2
 78
   300
147
1.0
148
0.0
149
0.0
100
AcDbLayout
  1
Sheet2
 70
     1
 71
     2
 10
0.0
 20
0.0
 11
0.0
 21
0.0
 12
0.0
 22
0.0
 32
0.0
 14
0.0
 24
0.0
 34
0.0
 15
0.0
 25
0.0
 35
0.0
146
0.0
 13
0.0
 23
0.0
 33
0.0
 16
1.0
 26
0.0
 36
0.0
 17
0.0
 27
1.0
 37
0.0
 76
     0
330
B9
  0
MATERIAL
  5
4C
102
{ACAD_REACTORS
330
7
102
}
330
7
100
AcDbMaterial
  1
ByBlock
 72
     1
 94
      127
  0
MATERIAL
  5
4B
102
{ACAD_REACTORS
330
7
102
}
330
7
100
AcDbMaterial
  1
ByLayer
 72
     1
 94
      127
  0
MATERIAL
  5
6
102
{ACAD_REACTORS
330
7
102
}
330
7
100
AcDbMaterial
  1
Global
 72
     1
 94
      127
  0
MLINESTYLE
  5
12
102
{ACAD_REACTORS
330
13
102
}
330
13
100
AcDbMlineStyle
  2
Standard
 70
     0
  3

 62
   256
 51
90.0
 52
90.0
 71
     2
 49
0.5
 62
   256
  6
BYLAYER
 49
-0.5
 62
   256
  6
BYLAYER
  0
ACDBPLACEHOLDER
  5
3
102
{ACAD_REACTORS
330
4
102
}
330
4
  0
SCALE
  5
4A
102
{ACAD_REACTORS
330
28
102
}
330
28
100
AcDbScale
 70
     0
300
1:1
140
1.0
141
1.0
290
     1
  0
VISUALSTYLE
  5
25
102
{ACAD_REACTORS
330
23
102
}
330
23
100
AcDbVisualStyle
  2
2dWireframe
 70
     4
177
     2
291
     0
 71
     0
176
     1
 72
     2
176
     1
 73
     0
176
     1
 90
        0
176
     1
 40
-0.6
176
     1
 41
-30.0
176
     1
 62
     5
 63
     7
421
 16777215
176
     1
 74
     1
176
     1
 91
        4
176
     1
 64
     7
176
     1
 65
   257
176
     1
 75
     1
176
     1
175
     1
176
     1
 42
1.0
176
     1
 92
        0
176
     1
 66
   257
176
     1
 43
1.0
176
     1
 76
     1
176
     1
 77
     6
176
     1
 78
     2
176
     1
 67
     7
176
     1
 79
     5
176
     1
170
     0
176
     1
171
     0
176
     1
290
     0
176
     1
 93
        1
176
     1
 44
0.0
176
     1
173
     0
176
     1
  0
DICTIONARYVAR
  5
BE
102
{ACAD_REACTORS
330
BD
102
}
330
BD
100
DictionaryVariables
280
     0
  1
1:1
  0
DICTIONARYVAR
  5
C1
102
{ACAD_REACTORS
330
BD
102
}
330
BD
100
DictionaryVariables
280
     0
  1
0
  0
ENDSEC
  0
EOF
